<svg xmlns="http://www.w3.org/2000/svg" width="119.875" height="22" viewBox="0 0 119.875 22">
  <g id="Group_4" data-name="Group 4" transform="translate(-143 -32)">
    <g id="Group_2" data-name="Group 2" transform="translate(143 32)">
      <g id="layer101" transform="translate(28.204 4.669)">
        <path id="Path_1" data-name="Path 1" d="M2663.26,222.543c0-.077.269-.94.576-1.937a18.875,18.875,0,0,0,.575-1.975c0-.115-.384-.192-.844-.192h-.844l-1.362-4.085c-.748-2.225-1.362-4.123-1.362-4.219a2.9,2.9,0,0,1,1.227-.134h1.247l1.208,3.663,1.208,3.663,1.17-3.605c1.113-3.433,1.189-3.625,1.668-3.682.288-.038.518.019.518.1,0,.1-.9,2.953-2.014,6.348-1.937,5.888-2.052,6.175-2.493,6.175C2663.471,222.658,2663.26,222.6,2663.26,222.543Z" transform="translate(-2608.986 -205.953)" fill="#ffffff"/>
        <path id="Path_2" data-name="Path 2" d="M613.3,201.408c-2.186-.422-3.356-1.3-3.567-2.685a10.282,10.282,0,0,1,.384-4.526c1.093-1.668,5.849-2.205,8.323-.94,1.5.767,1.745,1.553,1.764,5.408v2.608h-1.573c-.882-.019-2.32.038-3.222.1A13.624,13.624,0,0,1,613.3,201.408Zm3.8-1.247.614-.211-.019-2.129c0-2.57-.23-3.337-1.112-3.855-1.323-.767-3.721-.326-4.219.786a12.817,12.817,0,0,0,0,4.526C612.874,200.43,614.945,200.814,617.093,200.162Z" transform="translate(-597.953 -188.847)" fill="#ffffff"/>
        <path id="Path_3" data-name="Path 3" d="M1825.909,204.763c-2.359-.46-3.337-1.189-3.663-2.723a9.029,9.029,0,0,1,.249-4.2c.595-1.227,2.3-1.879,4.948-1.86,2.225,0,3.49.384,4.43,1.342l.652.671.058,3.318.077,3.337-1.515-.019c-.825-.019-2.224.038-3.126.1A13.618,13.618,0,0,1,1825.909,204.763Zm3.606-1.208.518-.134.058-2.512c.038-2.455.038-2.531-.441-3.088-1.17-1.381-4.162-1.112-4.814.441a10.85,10.85,0,0,0-.1,4.1C1825.084,203.65,1827.213,204.168,1829.515,203.554Z" transform="translate(-1787.169 -192.201)" fill="#ffffff"/>
        <path id="Path_4" data-name="Path 4" d="M3813.261,200.555c-2.3-.518-3.088-1.362-3.222-3.471-.135-2.052.077-3.068.748-3.855,1.362-1.534,5.638-1.9,8.074-.652.92.479,1.016.671.5,1.016-.4.268-.537.249-1.458-.211-1.362-.671-3.567-.748-4.392-.134-.844.633-1.016,1.151-1.016,3.184,0,1.707.039,1.9.479,2.416,1.055,1.247,4.219,1.189,5.715-.115.269-.23.422-.249.825-.058.269.115.46.326.422.46a4.191,4.191,0,0,1-2.052,1.285A12.068,12.068,0,0,1,3813.261,200.555Z" transform="translate(-3736.932 -188.128)" fill="#ffffff"/>
        <path id="Path_5" data-name="Path 5" d="M4406.63,210.2c-.153-.058-.594-.23-.958-.384l-.671-.268.46-.345c.422-.326.537-.326,1.094-.1,1.553.652,3.529.1,3.529-.978,0-.575-.46-.882-2.187-1.438-1.687-.556-2.588-1.342-2.723-2.4-.192-1.553,1.055-2.57,3.376-2.742,1.285-.077,3.452.364,3.452.71,0,.46-.595.633-1.42.422a3.072,3.072,0,0,0-2.416.077c-.633.326-.939,1.112-.576,1.534a3.129,3.129,0,0,0,1.017.556c.441.153,1.208.422,1.726.614,1.5.537,1.86,1,1.86,2.378,0,1-.077,1.227-.479,1.611a3.64,3.64,0,0,1-1.208.652A12.086,12.086,0,0,1,4406.63,210.2Z" transform="translate(-4320.521 -197.657)" fill="#ffffff"/>
        <path id="Path_6" data-name="Path 6" d="M0,5.329V-.808l.614.058C1.151-.693,1.5-.29,4.3,3.6L7.384,7.9,7.441,3.66c.058-4.737-.1-4.315,1.63-4.545L9.973-1V11.485H9.359c-.595-.019-.786-.23-3.7-4.315l-3.069-4.3L2.532,7.189l-.038,4.3H0Z" transform="translate(0 1)" fill="#ffffff"/>
        <path id="Path_7" data-name="Path 7" d="M1241.654,215.158c-.038-.134-.057-2.052-.038-4.258.057-3.452.1-4.027.345-3.989.153.019.69.077,1.208.153l.9.115v8.227h-1.151C1242.152,215.407,1241.73,215.331,1241.654,215.158Z" transform="translate(-1217.796 -202.922)" fill="#ffffff"/>
        <path id="Path_8" data-name="Path 8" d="M1460,196.164v-4.258l1.016.077a8.318,8.318,0,0,0,2.225-.173c1.688-.364,2.781-.268,2.857.249.058.364-.057.422-1.112.537a2.83,2.83,0,0,0-1.784.69l-.614.537-.1,3.241-.1,3.222-1.189.058L1460,200.4Z" transform="translate(-1432 -187.898)" fill="#ffffff"/>
        <path id="Path_9" data-name="Path 9" d="M2450.149,25.267a120.05,120.05,0,0,1,.039-12.044,4.43,4.43,0,0,1,1.246.019l1.074.134V25.4H2451.4A3.481,3.481,0,0,1,2450.149,25.267Z" transform="translate(-2403.028 -12.917)" fill="#ffffff"/>
        <path id="Path_10" data-name="Path 10" d="M3182.465,25.267a25.741,25.741,0,0,1-.134-3.625v-3.51l-.614-.058c-.537-.038-.652-.153-.691-.575-.057-.5-.019-.537.614-.537h.69v-1.8a6.281,6.281,0,0,1,.173-1.937,4.432,4.432,0,0,1,1.247.019l1.074.134v3.586h2.513l-.058.537c-.058.5-.115.518-1.247.575l-1.208.058V25.4h-1.112A3.48,3.48,0,0,1,3182.465,25.267Z" transform="translate(-3120.002 -12.917)" fill="#ffffff"/>
        <path id="Path_11" data-name="Path 11" d="M3591.654,215.158c-.039-.134-.057-2.052-.039-4.258.058-3.452.1-4.027.346-3.989.153.019.69.077,1.208.153l.9.115v8.227h-1.151C3592.152,215.407,3591.73,215.331,3591.654,215.158Z" transform="translate(-3522.727 -202.922)" fill="#ffffff"/>
        <path id="Path_12" data-name="Path 12" d="M1231.921,22.244a.938.938,0,0,1-.537-.882c-.1-.882.384-1.362,1.342-1.362,1.151,0,1.5.268,1.5,1.151C1234.223,22.321,1233.129,22.858,1231.921,22.244Z" transform="translate(-1207.757 -19.597)" fill="#ffffff"/>
        <path id="Path_13" data-name="Path 13" d="M3581.921,22.244a.938.938,0,0,1-.536-.882c-.1-.882.384-1.362,1.342-1.362,1.151,0,1.5.268,1.5,1.151C3584.223,22.321,3583.129,22.858,3581.921,22.244Z" transform="translate(-3512.688 -19.597)" fill="#ffffff"/>
      </g>
      <g id="Group_1" data-name="Group 1">
        <rect id="Rectangle_1" data-name="Rectangle 1" width="22" height="22" rx="2" fill="#ffffff"/>
        <path id="Path_14" data-name="Path 14" d="M0,5.635V-.8l.643.06c.563.06.925.483,3.861,4.564l3.237,4.5L7.8,3.886C7.862-1.08,7.7-.638,9.511-.879L10.456-1V12.09H9.812c-.623-.02-.824-.241-3.881-4.524l-3.217-4.5-.06,4.524-.04,4.5H0Z" transform="translate(5.706 5.669)" fill="#253c92"/>
      </g>
    </g>
  </g>
</svg>
