<svg xmlns="http://www.w3.org/2000/svg" viewBox="0 0 478 478"><path d="M119.5 187.8H17.1c-9.4 0-17 7.6-17.1 17.1v256c0 9.5 7.7 17.1 17.1 17.1h102.4c9.5 0 17.1-7.7 17.1-17.1v-256C136.6 195.4 128.9 187.8 119.5 187.8z"/><path d="M290.2 0.1H187.8c-9.4 0-17.1 7.6-17.1 17v443.8c0 9.5 7.7 17.1 17.1 17.1h102.4c9.5 0 17.1-7.7 17.1-17.1V17.2C307.3 7.7 299.6 0.1 290.2 0.1z"/><path d="M460.9 136.6H358.5c-9.5 0-17.1 7.6-17.1 17.1v307.2c0 9.5 7.7 17.1 17.1 17.1h102.4c9.5 0 17.1-7.7 17.1-17.1v-307.2C478 144.2 470.3 136.6 460.9 136.6z"/></svg>