<svg
                            enable-background="new 0 0 24 24"
                            height="512"
                            viewBox="0 0 24 24"
                            width="512"
                            xmlns="http://www.w3.org/2000/svg"
                          >
                            <path d="m15.5 13c-1.07 0-2.05-.62-2.5-1.59l-1-2.15-1 2.15c-.45.97-1.43 1.59-2.5 1.59h-6.51v6.25c0 .35.25.66.6.73l9.24 2c.05.01.1.02.16.02h.01.01c.05 0 .1-.01.16-.02l9.24-2c.34-.07.59-.38.59-.73v-6.25z" />
                            <path d="m23.25 11h-7.752c-.292 0-.557-.169-.68-.433l-3.495-7.5c-.121-.258-.084-.562.094-.785.178-.222.468-.327.745-.265l9.247 2c.252.054.458.234.546.477l2 5.5c.084.23.05.486-.09.687-.141.2-.37.319-.615.319z" />
                            <path d="m8.502 11h-7.752c-.245 0-.474-.119-.614-.32-.141-.2-.174-.457-.09-.687l2-5.5c.088-.242.294-.422.546-.476l9.247-2c.278-.062.567.042.745.265s.214.527.094.785l-3.495 7.5c-.124.264-.389.433-.681.433z" />
                          </svg>