<svg xmlns="http://www.w3.org/2000/svg" viewBox="0 0 477.9 477.9"><path d="M119.5 0C110 0 102.4 7.6 102.4 17.1V51.2h34.1V17.1C136.5 7.6 128.9 0 119.5 0z"/><path d="M358.4 0c-9.4 0-17.1 7.6-17.1 17.1V51.2h34.1V17.1C375.5 7.6 367.8 0 358.4 0z"/><path d="M426.7 51.2h-51.2v68.3c0 9.4-7.6 17.1-17.1 17.1s-17.1-7.6-17.1-17.1V51.2h-204.8v68.3c0 9.4-7.6 17.1-17.1 17.1s-17.1-7.6-17.1-17.1V51.2H51.2C22.9 51.2 0 74.1 0 102.4v324.3c0 28.3 22.9 51.2 51.2 51.2h375.5c28.3 0 51.2-22.9 51.2-51.2V102.4C477.9 74.1 454.9 51.2 426.7 51.2zM443.7 426.7c0 9.4-7.6 17.1-17.1 17.1H51.2c-9.4 0-17.1-7.6-17.1-17.1V204.8h409.6V426.7z"/><path d="M136.5 238.9H102.4c-9.4 0-17.1 7.6-17.1 17.1s7.6 17.1 17.1 17.1h34.1c9.4 0 17.1-7.6 17.1-17.1S146 238.9 136.5 238.9z"/><path d="M256 238.9h-34.1c-9.4 0-17.1 7.6-17.1 17.1s7.6 17.1 17.1 17.1H256c9.4 0 17.1-7.6 17.1-17.1S265.4 238.9 256 238.9z"/><path d="M375.5 238.9h-34.1c-9.4 0-17.1 7.6-17.1 17.1s7.6 17.1 17.1 17.1h34.1c9.4 0 17.1-7.6 17.1-17.1S384.9 238.9 375.5 238.9z"/><path d="M136.5 307.2H102.4c-9.4 0-17.1 7.6-17.1 17.1 0 9.4 7.6 17.1 17.1 17.1h34.1c9.4 0 17.1-7.6 17.1-17.1C153.6 314.8 146 307.2 136.5 307.2z"/><path d="M256 307.2h-34.1c-9.4 0-17.1 7.6-17.1 17.1 0 9.4 7.6 17.1 17.1 17.1H256c9.4 0 17.1-7.6 17.1-17.1C273.1 314.8 265.4 307.2 256 307.2z"/><path d="M375.5 307.2h-34.1c-9.4 0-17.1 7.6-17.1 17.1 0 9.4 7.6 17.1 17.1 17.1h34.1c9.4 0 17.1-7.6 17.1-17.1C392.5 314.8 384.9 307.2 375.5 307.2z"/><path d="M136.5 375.5H102.4c-9.4 0-17.1 7.6-17.1 17.1S93 409.6 102.4 409.6h34.1c9.4 0 17.1-7.6 17.1-17.1S146 375.5 136.5 375.5z"/><path d="M256 375.5h-34.1c-9.4 0-17.1 7.6-17.1 17.1s7.6 17.1 17.1 17.1H256c9.4 0 17.1-7.6 17.1-17.1S265.4 375.5 256 375.5z"/><path d="M375.5 375.5h-34.1c-9.4 0-17.1 7.6-17.1 17.1s7.6 17.1 17.1 17.1h34.1c9.4 0 17.1-7.6 17.1-17.1S384.9 375.5 375.5 375.5z"/></svg>