<svg xmlns="http://www.w3.org/2000/svg" viewBox="0 0 512 512"><path d="M484.3 446v-0.2H111c-30.6 0-55.5-24.8-55.6-55.4v-352c0-15.3-12.4-27.7-27.7-27.7S0 23 0 38.3v352c0 61.3 49.7 111 111 111h373.3c15.3 0 27.7-12.4 27.7-27.7S499.6 446 484.3 446z"/><path d="M450.8 127.7c-12.3-9.2-29.7-6.7-38.9 5.6l-64.4 92.3 -91.1-68.5c-12.2-9.2-29.6-6.7-38.8 5.5 0 0 0 0.1-0.1 0.1L138.3 276.5c-9.3 12.2-6.9 29.6 5.3 38.8 4.7 3.5 10.3 5.5 16.2 5.6 0 0 0 0.6 0 0.6 8.5-0.2 16.4-4.4 21.5-11.2l64.4-92.3 91.1 68.5c12.2 9.2 29.6 6.7 38.8-5.5 0 0 0-0.1 0.1-0.1l80.8-114.5C465.6 154.3 463.1 136.9 450.8 127.7z"/></svg>