<svg xmlns="http://www.w3.org/2000/svg" viewBox="0 0 512 512"><path d="M287 0c-8.3 0-15 6.7-15 15v211c0 8.3 6.7 15 15 15h210c8.3 0 15-6.7 15-15C512 101.9 411.1 0 287 0z"/><path d="M314.8 478.4L242 283.3V76c0-8.3-6.7-15-15-15C102.9 61 0 161.9 0 286s102.9 226 227 226c27.2 0 53.7-4.8 79-14.3C313.8 494.8 317.7 486.1 314.8 478.4z"/><path d="M497 271H287c-4.9 0-9.5 2.4-12.3 6.5 -2.8 4-3.4 9.2-1.7 13.8l73.7 197.6c1.4 3.7 4.2 6.7 7.9 8.4 3.6 1.7 7.7 1.8 11.5 0.4C453.3 464.8 512 379.2 512 286 512 277.7 505.3 271 497 271z"/></svg>