<svg
                  xmlns="http://www.w3.org/2000/svg"
                  width="48"
                  height="48"
                  viewBox="0 0 48 48"
                  fill="none"
                  className="form__icon"
                >
                  <path d="M47.4 44.6L33.8 30.9C36.4 27.7 38 23.5 38 19 38 8.5 29.5 0 19 0 8.5 0 0 8.5 0 19 0 29.5 8.5 38 19 38 23.5 38 27.7 36.4 30.9 33.8L44.6 47.4C45 47.8 45.5 48 46 48 46.5 48 47 47.8 47.4 47.4 48.2 46.6 48.2 45.4 47.4 44.6ZM19 34C10.7 34 4 27.3 4 19 4 10.7 10.7 4 19 4 27.3 4 34 10.7 34 19 34 27.3 27.3 34 19 34Z" />
                </svg>