<svg xmlns="http://www.w3.org/2000/svg" viewBox="0 0 477.9 477.9"><path d="M460.8 170.7h-28.9c-2.4-6.8-5.1-13.4-8.2-19.9l20.5-20.5c6.7-6.7 6.7-17.5 0-24.1l-72.5-72.3c-6.7-6.7-17.5-6.7-24.1 0l-20.5 20.5c-6.5-3.1-13.1-5.9-19.9-8.3V17.1C307.2 7.6 299.6 0 290.1 0h-102.4c-9.4 0-17.1 7.6-17.1 17.1v28.9c-6.8 2.4-13.4 5.1-20 8.2l-20.5-20.5c-6.7-6.7-17.5-6.7-24.1 0l-72.3 72.5c-6.7 6.7-6.7 17.5 0 24.1l20.5 20.5c-3.1 6.5-5.9 13.1-8.3 19.9H17.1C7.6 170.7 0 178.3 0 187.7v102.4c0 9.4 7.6 17.1 17.1 17.1h28.9c2.4 6.8 5.1 13.4 8.2 19.9l-20.5 20.5c-6.7 6.7-6.7 17.5 0 24.1l72.4 72.4c6.7 6.7 17.5 6.7 24.1 0l20.5-20.5c6.5 3.1 13.2 5.8 19.9 8.2V460.8c0 9.4 7.6 17.1 17.1 17.1h102.4c9.4 0 17.1-7.6 17.1-17.1v-28.9c6.8-2.4 13.4-5.1 20-8.2l20.5 20.5c6.7 6.7 17.5 6.7 24.1 0l72.4-72.4c6.7-6.7 6.7-17.5 0-24.1l-20.5-20.5c3.1-6.5 5.8-13.1 8.2-19.9H460.8c9.4 0 17.1-7.6 17.1-17.1v-102.4C477.9 178.3 470.2 170.7 460.8 170.7zM443.7 273.1h-24.3c-7.6 0-14.3 5.1-16.4 12.4 -3.6 12.7-8.6 25-15.1 36.6 -3.8 6.7-2.6 15.1 2.8 20.5l17.1 17.2 -48.2 48.2 -17.2-17.1c-5.4-5.4-13.8-6.6-20.5-2.8 -11.6 6.4-23.8 11.5-36.6 15.1 -7.3 2.1-12.4 8.8-12.4 16.4v24.2H204.8v-24.3c0-7.6-5.1-14.3-12.4-16.4 -12.7-3.6-25-8.7-36.6-15.1 -6.7-3.8-15.1-2.6-20.5 2.8l-17.1 17.1 -48.3-48.2L87 342.5c5.4-5.4 6.6-13.8 2.8-20.5 -6.4-11.6-11.5-23.8-15.1-36.6 -2.1-7.3-8.8-12.3-16.3-12.3h-24.3V204.8h24.3c7.6 0 14.3-5.1 16.4-12.4 3.6-12.7 8.6-25 15.1-36.6 3.8-6.7 2.6-15.1-2.8-20.5l-17.1-17.1 48.2-48.3 17.1 17.1c5.4 5.4 13.8 6.6 20.5 2.8 11.6-6.4 23.8-11.5 36.6-15.1 7.3-2.1 12.4-8.7 12.4-16.3v-24.3h68.3v24.3c0 7.6 5.1 14.3 12.4 16.4 12.7 3.6 25 8.7 36.6 15.1 6.7 3.8 15.1 2.6 20.5-2.8l17.2-17.1 48.2 48.2 -17.1 17.1c-5.4 5.4-6.6 13.8-2.8 20.5 6.4 11.6 11.5 23.8 15.1 36.6 2.1 7.3 8.8 12.4 16.4 12.4h24.2V273.1z"/><path d="M238.9 119.5c-66 0-119.5 53.5-119.5 119.5S173 358.4 238.9 358.4 358.4 304.9 358.4 238.9C358.3 173 304.9 119.5 238.9 119.5zM238.9 324.3c-47.1 0-85.3-38.2-85.3-85.3s38.2-85.3 85.3-85.3 85.3 38.2 85.3 85.3C324.2 286 286 324.2 238.9 324.3z"/></svg>