<svg xmlns="http://www.w3.org/2000/svg" height="512" viewBox="-21 0 512 512" width="512"><path d="m453.3 85.3c0 38.3-31 69.3-69.3 69.3s-69.3-31-69.3-69.3c0-38.3 31-69.3 69.3-69.3s69.3 31 69.3 69.3zm0 0"/><path d="m384 170.7c-47.1 0-85.3-38.3-85.3-85.3 0-47.1 38.3-85.3 85.3-85.3s85.3 38.3 85.3 85.3c0 47.1-38.3 85.3-85.3 85.3zm0-138.7c-29.4 0-53.3 23.9-53.3 53.3 0 29.4 23.9 53.3 53.3 53.3s53.3-23.9 53.3-53.3c0-29.4-23.9-53.3-53.3-53.3zm0 0"/><path d="m453.3 426.7c0 38.3-31 69.3-69.3 69.3s-69.3-31-69.3-69.3c0-38.3 31-69.3 69.3-69.3s69.3 31 69.3 69.3zm0 0"/><path d="m384 512c-47.1 0-85.3-38.3-85.3-85.3 0-47.1 38.3-85.3 85.3-85.3s85.3 38.3 85.3 85.3c0 47.1-38.3 85.3-85.3 85.3zm0-138.7c-29.4 0-53.3 23.9-53.3 53.3 0 29.4 23.9 53.3 53.3 53.3s53.3-23.9 53.3-53.3c0-29.4-23.9-53.3-53.3-53.3zm0 0"/><path d="m154.7 256c0 38.3-31 69.3-69.3 69.3-38.3 0-69.3-31-69.3-69.3s31-69.3 69.3-69.3c38.3 0 69.3 31 69.3 69.3zm0 0"/><path d="m85.3 341.3c-47.1 0-85.3-38.3-85.3-85.3s38.3-85.3 85.3-85.3c47.1 0 85.3 38.3 85.3 85.3s-38.3 85.3-85.3 85.3zm0-138.7c-29.4 0-53.3 23.9-53.3 53.3s23.9 53.3 53.3 53.3c29.4 0 53.3-23.9 53.3-53.3s-23.9-53.3-53.3-53.3zm0 0"/><path d="m135.7 245.8c-7.4 0-14.6-3.9-18.6-10.8-5.8-10.2-2.2-23.3 8-29.1l197.9-112.9c10.2-5.9 23.3-2.3 29.1 8 5.8 10.2 2.2 23.3-8 29.1l-198 112.9c-3.3 1.9-7 2.8-10.5 2.8zm0 0"/><path d="m333.6 421.8c-3.6 0-7.2-0.9-10.5-2.8l-198-112.9c-10.2-5.8-13.8-18.9-8-29.1 5.8-10.2 18.9-13.8 29.1-8l198 112.9c10.2 5.8 13.8 18.9 8 29.1-3.9 6.9-11.2 10.8-18.6 10.8zm0 0"/></svg>